# xmcd
#
# Track frame offsets: 
#        150
#        19532
#        37192
#        55507
#        74485
#        92672
#        108250
#        123885
#        141647
#        152780
#        170395
#
# Disc length: 2490 seconds
#
# Revision: 0
# Processed by: cddbd v1.5.1PL2 Copyright (c) Steve Scherf et al.
# Submitted via: ExactAudioCopy v0.95b3
#
DISCID=9109b80b
DTITLE=Shakira - Pies Descalzos
DYEAR=1996
DGENRE=Vocal
TTITLE0=Estoy Aqui
TTITLE1=Antologia
TTITLE2=Poco de Amor
TTITLE3=Quiero
TTITLE4=Te Necesito
TTITLE5=Vuelve
TTITLE6=Te Espero Sentada
TTITLE7=Pies Descalzos, Suenos Blancos
TTITLE8=Pienso en Ti
TTITLE9=Donde Estas Corazon
TTITLE10=Se Quiere...Se Mata
EXTD=
EXTT0=
EXTT1=
EXTT2=
EXTT3=
EXTT4=
EXTT5=
EXTT6=
EXTT7=
EXTT8=
EXTT9=
EXTT10=
PLAYORDER=
